<svg height="24" viewBox="0 0 24 24" width="24" xmlns="http://www.w3.org/2000/svg"><path d="m12 2c5.5228 0 10 4.47715 10 10 0 5.5228-4.4772 10-10 10-1.6404 0-3.22484-.3961-4.64422-1.1417l-4.2904 1.117c-.45428.1184-.91848-.154-1.0368-.6083-.03659-.1404-.0366-.2879-.00003-.4284l1.11635-4.2884c-.7477-1.4208-1.1449-3.0074-1.1449-4.6502 0-5.52285 4.47715-10 10-10zm0 13.5c-.5523 0-1 .4477-1 1s.4477 1 1 1 1-.4477 1-1-.4477-1-1-1zm0-8.75c-1.5188 0-2.75 1.23122-2.75 2.75 0 .41421.33579.75.75.75.3797 0 .6935-.28215.7432-.64823l.0133-.22958c.064-.63032.5963-1.12219 1.2435-1.12219.6904 0 1.25.55964 1.25 1.25 0 .5388-.135.8053-.6449 1.3322l-.304.3092c-.7536.7846-1.0511 1.3478-1.0511 2.3586 0 .4142.3358.75.75.75s.75-.3358.75-.75c0-.5388.135-.8053.6449-1.3322l.304-.3092c.7536-.7846 1.0511-1.3478 1.0511-2.3586 0-1.51878-1.2312-2.75-2.75-2.75z" fill="#212121"/></svg>