<svg height="24" viewBox="0 0 24 24" width="24" xmlns="http://www.w3.org/2000/svg"><path d="m12 2c5.5228 0 10 4.47715 10 10 0 5.5228-4.4772 10-10 10-1.6183 0-3.18218-.3854-4.58714-1.112l-3.82582 1.0673c-.66492.1857-1.35446-.2028-1.54013-.8677-.06145-.22-.06142-.4527.00004-.6725l1.06766-3.8229c-.72824-1.4062-1.11461-2.9719-1.11461-4.5922 0-5.52285 4.47715-10 10-10zm0 1.5c-4.69442 0-8.5 3.80558-8.5 8.5 0 1.4696.37277 2.8834 1.07303 4.1375l.15065.2697-1.11272 3.9842 3.98659-1.1122.26954.1503c1.25297.6986 2.66511 1.0705 4.13291 1.0705 4.6944 0 8.5-3.8056 8.5-8.5 0-4.69442-3.8056-8.5-8.5-8.5zm0 12c.5523 0 1 .4477 1 1s-.4477 1-1 1-1-.4477-1-1 .4477-1 1-1zm0-8.75c1.5188 0 2.75 1.23122 2.75 2.75 0 1.0108-.2975 1.574-1.0511 2.3586l-.1686.1717c-.6219.6219-.7803.886-.7803 1.4697 0 .4142-.3358.75-.75.75s-.75-.3358-.75-.75c0-1.0108.2975-1.574 1.0511-2.3586l.1686-.1717c.6219-.6219.7803-.886.7803-1.4697 0-.69036-.5596-1.25-1.25-1.25-.6472 0-1.1795.49187-1.2435 1.12219l-.0065.12781c0 .41421-.3358.75-.75.75-.41421 0-.75-.33579-.75-.75 0-1.51878 1.2312-2.75 2.75-2.75z" fill="#212121"/></svg>